<svg width="32" height="32" viewBox="0 0 32 32" fill="none" xmlns="http://www.w3.org/2000/svg">
<path fill-rule="evenodd" clip-rule="evenodd" d="M17.4503 8.95858C17.8045 8.59473 18.0233 8.0985 18.0233 7.55313V5.80058C18.0233 4.68996 17.1161 3.78312 16.0051 3.78312C14.8941 3.78312 13.9869 4.68996 13.9869 5.80058V7.56332C13.9869 8.02255 14.142 8.44693 14.4025 8.78677C14.4482 8.84641 14.4972 8.90344 14.5491 8.9576C14.8728 9.29519 15.3121 9.5212 15.802 9.5706C15.8655 9.577 15.9298 9.58044 15.9949 9.58076C15.9983 9.58078 16.0017 9.58079 16.0051 9.58079V9.5706C16.5705 9.5706 17.0832 9.3357 17.4503 8.95858ZM19.3636 9.33309C19.6465 8.80177 19.807 8.1958 19.807 7.55313V5.80058C19.807 3.70517 18.1012 2 16.0051 2C13.909 2 12.2032 3.70517 12.2032 5.80058V7.56332C12.2032 8.2003 12.3608 8.80121 12.6391 9.32913C11.7056 9.61488 10.9776 10.0229 10.4159 10.5039C9.86834 10.9728 9.52854 11.4708 9.3225 11.8942C9.2206 12.1036 9.15316 12.2911 9.10865 12.4436C9.08638 12.5198 9.06978 12.5876 9.05743 12.6453C9.05137 12.6736 9.04633 12.6995 9.04213 12.7228L7.84494 18.879L2.81449 22.135C2.02792 22.6441 1.76953 23.6748 2.22296 24.4946C2.71187 25.3785 3.46014 25.7832 4.15217 25.9113C4.38493 26.5796 4.8068 27.046 5.18839 27.3507C5.42158 27.5369 5.65772 27.6777 5.86751 27.783C5.85797 27.8823 5.85309 27.9828 5.85309 28.0844V28.2169C5.85309 29.2017 6.6517 30 7.63683 30H24.3734C25.3585 30 26.1571 29.2017 26.1571 28.2169V28.0844C26.1571 27.9822 26.1522 27.8813 26.1427 27.7818C26.352 27.6763 26.5876 27.5353 26.8202 27.3489C27.2035 27.0419 27.6262 26.5722 27.8579 25.8992C28.5471 25.7691 29.2905 25.364 29.777 24.4844C30.2307 23.6641 29.9717 22.6328 29.1843 22.124L24.1424 18.8665L22.9479 12.7243C22.9479 12.7239 22.9478 12.7234 22.9477 12.7229C22.9435 12.6995 22.9384 12.6736 22.9324 12.6453C22.92 12.5876 22.9034 12.5198 22.8812 12.4436C22.8366 12.2911 22.7692 12.1036 22.6673 11.8942C22.4613 11.4708 22.1215 10.9728 21.5739 10.5039C21.0148 10.0251 20.2909 9.61864 19.3636 9.33309ZM17.9393 10.824C17.7563 10.7921 17.563 10.7644 17.3589 10.7418C16.9521 10.6967 16.5023 10.6714 16.0051 10.671C16.0017 10.671 15.9983 10.671 15.9949 10.671C15.2451 10.671 14.603 10.7277 14.053 10.8236C11.0443 11.3481 10.7966 13.0451 10.7966 13.0451L9.45114 19.9636L4.69942 23.0392L3.78396 23.6317C3.81609 23.6898 3.85019 23.7421 3.88586 23.7891C3.95148 23.8755 4.02239 23.9439 4.09604 23.9977C4.5792 24.3503 5.18037 24.0699 5.18037 24.0699L10.4602 21.7467C10.5701 21.6983 10.6728 21.6365 10.7668 21.5633C10.969 21.4058 11.1305 21.1955 11.2349 20.952L12.6822 17.4672L13.0186 18.9854C13.0594 19.179 13.0798 19.3726 13.0798 19.5662V20.8399C13.0798 20.9699 13.0704 21.0999 13.0515 21.2282C13.0364 21.3311 13.0153 21.4329 12.988 21.5327L12.7332 22.4498L14.6902 23V23.3464H9.63461L5.87348 24.2737C5.8549 24.3287 5.8389 24.3824 5.82532 24.4347C5.68678 24.9686 5.80005 25.3642 6.00867 25.6536C6.08969 25.766 6.18508 25.8624 6.28569 25.9446C6.30624 25.9614 6.32701 25.9776 6.34792 25.9932C6.41342 26.0422 6.48029 26.0855 6.54613 26.1237C6.86393 26.3081 7.15777 26.3726 7.15777 26.3726L8.97208 26.7496C8.22801 26.7496 7.63683 27.3508 7.63683 28.0844V28.2169H24.3734V28.0844C24.3734 27.3406 23.772 26.7496 23.0381 26.7496L24.8524 26.3726C24.8524 26.3726 25.1461 26.3077 25.4635 26.1223C25.5287 26.0843 25.5948 26.0411 25.6596 25.9924C25.6798 25.9773 25.6999 25.9615 25.7198 25.9453C25.8221 25.8615 25.9191 25.763 26.0012 25.6478C26.2074 25.3582 26.3191 24.9632 26.183 24.4312C26.1699 24.3799 26.1545 24.3274 26.1367 24.2737L22.3756 23.3362L19.5114 23.3566L19.012 21.5226C18.9847 21.4227 18.9636 21.3209 18.9485 21.218C18.9296 21.0897 18.9202 20.9597 18.9202 20.8297V19.556C18.9202 19.3624 18.9406 19.1587 18.9814 18.9753L19.3177 17.4571L20.7651 20.9418C20.8652 21.1918 21.0353 21.4017 21.2476 21.5611C21.3381 21.6291 21.4362 21.6878 21.5398 21.7365L26.8196 24.0597C26.8196 24.0597 27.4255 24.3423 27.9096 23.9834C27.9817 23.9299 28.0511 23.8622 28.1154 23.7772C28.1506 23.7307 28.1843 23.679 28.216 23.6215L27.3004 23.0299L22.5387 19.9534V19.9636L21.1932 13.0451C21.1932 13.0451 20.9456 11.3491 17.9393 10.824ZM27.5678 22.441C27.5679 22.441 27.5677 22.4409 27.5678 22.441V22.441Z" fill="white"/>
</svg>