<svg width="30" height="30" viewBox="0 0 30 30" fill="none" xmlns="http://www.w3.org/2000/svg">
<path fill-rule="evenodd" clip-rule="evenodd" d="M19.783 4C23.4813 5.9591 26 9.84768 26 14.3237C26 20.7716 20.7725 26 14.3246 26C9.84768 26 5.9591 23.4805 4 19.783C5.62912 20.6455 7.48737 21.1348 9.45931 21.1348C15.9077 21.1348 21.1348 15.9077 21.1348 9.45842C21.1348 7.48737 20.6464 5.62912 19.783 4Z" fill="white"/>
<mask id="mask0" mask-type="alpha" maskUnits="userSpaceOnUse" x="0" y="0" width="30" height="30">
<path fill-rule="evenodd" clip-rule="evenodd" d="M21.5222 0C26.5655 2.67151 30 7.9741 30 14.0777C30 22.8704 22.8716 30 14.0789 30C7.9741 30 2.67151 26.5643 0 21.5222C2.22153 22.6984 4.75551 23.3656 7.44451 23.3656C16.2377 23.3656 23.3656 16.2377 23.3656 7.4433C23.3656 4.75551 22.6997 2.22153 21.5222 0Z" fill="white"/>
</mask>
<g mask="url(#mask0)">
</g>
</svg>