<svg width="30" height="30" viewBox="0 0 30 30" fill="none" xmlns="http://www.w3.org/2000/svg">
<path fill-rule="evenodd" clip-rule="evenodd" d="M13.302 6.7985C13.302 5.775 13.9925 4.9445 14.847 4.9445C15.6995 4.9445 16.3925 5.775 16.3925 6.7985C16.3925 7.8225 15.6995 8.6525 14.847 8.6525C13.9925 8.6525 13.302 7.8225 13.302 6.7985ZM6.8125 29.6665L9.2845 22.25L12.375 16.0695L11.757 12.361L9.2845 3.708H8.6665V2.472H21.028V3.708H20.4095L17.9375 12.361L17.3195 16.0695L20.4095 22.25L22.882 29.6665H21.6495L18.5555 23.486L14.847 19.7775L11.139 23.486L8.0435 29.6665H6.8125ZM10.521 3.708L13.611 9.8885H16.0835L19.1735 3.708H10.521ZM1.25 4.9445H3.722V1.236H1.25V4.9445ZM4.9585 6.1805H7.4305V0H4.9585V6.1805ZM25.972 4.9445H28.444V1.236H25.972V4.9445ZM22.264 6.1805H24.736V0H22.264V6.1805Z" fill="white"/>
<mask id="mask0" mask-type="alpha" maskUnits="userSpaceOnUse" x="1" y="0" width="28" height="30">
<path fill-rule="evenodd" clip-rule="evenodd" d="M13.302 6.7985C13.302 5.775 13.9925 4.9445 14.847 4.9445C15.6995 4.9445 16.3925 5.775 16.3925 6.7985C16.3925 7.8225 15.6995 8.6525 14.847 8.6525C13.9925 8.6525 13.302 7.8225 13.302 6.7985ZM6.8125 29.6665L9.2845 22.25L12.375 16.0695L11.757 12.361L9.2845 3.708H8.6665V2.472H21.028V3.708H20.4095L17.9375 12.361L17.3195 16.0695L20.4095 22.25L22.882 29.6665H21.6495L18.5555 23.486L14.847 19.7775L11.139 23.486L8.0435 29.6665H6.8125ZM10.521 3.708L13.611 9.8885H16.0835L19.1735 3.708H10.521ZM1.25 4.9445H3.722V1.236H1.25V4.9445ZM4.9585 6.1805H7.4305V0H4.9585V6.1805ZM25.972 4.9445H28.444V1.236H25.972V4.9445ZM22.264 6.1805H24.736V0H22.264V6.1805Z" fill="white"/>
</mask>
<g mask="url(#mask0)">
</g>
</svg>